<svg xmlns="http://www.w3.org/2000/svg" viewBox="0 0 100 100" width="100" height="100">
  <rect width="100" height="100" rx="20" fill="#04070f"/>
  <!-- Brain outline -->
  <path d="M35 55 C25 55 20 48 22 40 C24 32 30 28 35 30 C36 24 42 20 48 22 C51 18 57 18 60 22 C66 20 72 25 72 32 C78 33 82 39 80 46 C78 53 72 56 66 54 C64 60 58 64 52 62 C48 66 40 65 38 60 C37 58 36 57 35 55Z" fill="none" stroke="#3b82f6" stroke-width="2.5" stroke-linejoin="round"/>
  <!-- Center line -->
  <line x1="50" y1="22" x2="50" y2="62" stroke="#3b82f6" stroke-width="1.5" stroke-dasharray="3 2"/>
  <!-- Neural nodes -->
  <circle cx="35" cy="40" r="2.5" fill="#06b6d4"/>
  <circle cx="50" cy="32" r="2.5" fill="#06b6d4"/>
  <circle cx="65" cy="40" r="2.5" fill="#06b6d4"/>
  <circle cx="40" cy="52" r="2.5" fill="#06b6d4"/>
  <circle cx="60" cy="52" r="2.5" fill="#06b6d4"/>
  <!-- Connections -->
  <line x1="35" y1="40" x2="50" y2="32" stroke="#6366f1" stroke-width="1" opacity="0.7"/>
  <line x1="50" y1="32" x2="65" y2="40" stroke="#6366f1" stroke-width="1" opacity="0.7"/>
  <line x1="35" y1="40" x2="40" y2="52" stroke="#6366f1" stroke-width="1" opacity="0.7"/>
  <line x1="65" y1="40" x2="60" y2="52" stroke="#6366f1" stroke-width="1" opacity="0.7"/>
  <line x1="40" y1="52" x2="60" y2="52" stroke="#6366f1" stroke-width="1" opacity="0.7"/>
  <!-- Code brackets bottom -->
  <text x="32" y="80" font-family="monospace" font-size="14" fill="#3b82f6" opacity="0.9">&lt;/&gt;</text>
</svg>
